<mxfile host="Electron" modified="2024-09-26T21:51:47.943Z" agent="Mozilla/5.0 (Macintosh; Intel Mac OS X 10_15_7) AppleWebKit/537.36 (KHTML, like Gecko) draw.io/24.2.5 Chrome/120.0.6099.109 Electron/28.1.0 Safari/537.36" etag="eYsnUC0nnp54kci1osly" version="24.2.5" type="device">
  <diagram name="Page-1" id="lGMWeznoHSigCr0MlsQy">
    <mxGraphModel dx="1242" dy="818" grid="1" gridSize="10" guides="1" tooltips="1" connect="1" arrows="1" fold="1" page="1" pageScale="1" pageWidth="827" pageHeight="1169" math="0" shadow="0">
      <root>
        <mxCell id="0" />
        <mxCell id="1" parent="0" />
        <mxCell id="_MdnP5pKjzL89MY6UDUo-2" value="RBN" style="ellipse;shape=cloud;whiteSpace=wrap;html=1;align=center;" vertex="1" parent="1">
          <mxGeometry x="35" y="40" width="100" height="60" as="geometry" />
        </mxCell>
        <mxCell id="_MdnP5pKjzL89MY6UDUo-7" style="edgeStyle=orthogonalEdgeStyle;rounded=0;orthogonalLoop=1;jettySize=auto;html=1;exitX=1;exitY=0.5;exitDx=0;exitDy=0;strokeWidth=2;" edge="1" parent="1" source="_MdnP5pKjzL89MY6UDUo-3" target="_MdnP5pKjzL89MY6UDUo-6">
          <mxGeometry relative="1" as="geometry" />
        </mxCell>
        <mxCell id="_MdnP5pKjzL89MY6UDUo-8" value="Sort by channels&lt;div&gt;and publish to broker&lt;/div&gt;" style="edgeLabel;html=1;align=center;verticalAlign=middle;resizable=0;points=[];" vertex="1" connectable="0" parent="_MdnP5pKjzL89MY6UDUo-7">
          <mxGeometry x="-0.0632" relative="1" as="geometry">
            <mxPoint as="offset" />
          </mxGeometry>
        </mxCell>
        <mxCell id="_MdnP5pKjzL89MY6UDUo-3" value="dx-watcher" style="whiteSpace=wrap;html=1;align=center;" vertex="1" parent="1">
          <mxGeometry x="40" y="200" width="100" height="40" as="geometry" />
        </mxCell>
        <mxCell id="_MdnP5pKjzL89MY6UDUo-4" value="" style="endArrow=classic;html=1;rounded=0;exitX=0.55;exitY=0.95;exitDx=0;exitDy=0;exitPerimeter=0;entryX=0.5;entryY=0;entryDx=0;entryDy=0;strokeWidth=2;" edge="1" parent="1" source="_MdnP5pKjzL89MY6UDUo-2" target="_MdnP5pKjzL89MY6UDUo-3">
          <mxGeometry relative="1" as="geometry">
            <mxPoint x="360" y="420" as="sourcePoint" />
            <mxPoint x="460" y="420" as="targetPoint" />
          </mxGeometry>
        </mxCell>
        <mxCell id="_MdnP5pKjzL89MY6UDUo-5" value="telnet subscription&lt;div&gt;listen to all spots&lt;/div&gt;" style="edgeLabel;resizable=0;html=1;align=center;verticalAlign=middle;" connectable="0" vertex="1" parent="_MdnP5pKjzL89MY6UDUo-4">
          <mxGeometry relative="1" as="geometry">
            <mxPoint y="-9" as="offset" />
          </mxGeometry>
        </mxCell>
        <mxCell id="_MdnP5pKjzL89MY6UDUo-14" style="edgeStyle=orthogonalEdgeStyle;rounded=0;orthogonalLoop=1;jettySize=auto;html=1;entryX=0;entryY=0.5;entryDx=0;entryDy=0;strokeWidth=2;" edge="1" parent="1" source="_MdnP5pKjzL89MY6UDUo-6" target="_MdnP5pKjzL89MY6UDUo-13">
          <mxGeometry relative="1" as="geometry" />
        </mxCell>
        <mxCell id="_MdnP5pKjzL89MY6UDUo-17" value="listen&lt;div&gt;channel(s)&lt;/div&gt;" style="edgeLabel;html=1;align=center;verticalAlign=middle;resizable=0;points=[];" vertex="1" connectable="0" parent="_MdnP5pKjzL89MY6UDUo-14">
          <mxGeometry x="-0.3415" y="2" relative="1" as="geometry">
            <mxPoint as="offset" />
          </mxGeometry>
        </mxCell>
        <mxCell id="_MdnP5pKjzL89MY6UDUo-6" value="Message broker" style="sketch=0;outlineConnect=0;fontColor=#232F3E;gradientColor=none;fillColor=#E7157B;strokeColor=none;dashed=0;verticalLabelPosition=bottom;verticalAlign=top;align=center;html=1;fontSize=12;fontStyle=0;aspect=fixed;pointerEvents=1;shape=mxgraph.aws4.mq_broker;" vertex="1" parent="1">
          <mxGeometry x="330" y="185.5" width="78" height="69" as="geometry" />
        </mxCell>
        <mxCell id="_MdnP5pKjzL89MY6UDUo-9" value="Channels:&lt;div&gt;- &quot;all&quot;&lt;/div&gt;&lt;div&gt;- $country_code&lt;/div&gt;&lt;div&gt;- $call_prefix&lt;/div&gt;" style="shape=note;size=20;whiteSpace=wrap;html=1;" vertex="1" parent="1">
          <mxGeometry x="180" y="270" width="100" height="74.5" as="geometry" />
        </mxCell>
        <mxCell id="_MdnP5pKjzL89MY6UDUo-11" value="Telegram API" style="verticalLabelPosition=bottom;aspect=fixed;html=1;shape=mxgraph.salesforce.bots;" vertex="1" parent="1">
          <mxGeometry x="720" y="191.5" width="60" height="57" as="geometry" />
        </mxCell>
        <mxCell id="_MdnP5pKjzL89MY6UDUo-12" value="DB" style="shape=cylinder3;whiteSpace=wrap;html=1;boundedLbl=1;backgroundOutline=1;size=15;" vertex="1" parent="1">
          <mxGeometry x="640" y="20" width="60" height="80" as="geometry" />
        </mxCell>
        <mxCell id="_MdnP5pKjzL89MY6UDUo-13" value="bot" style="rounded=1;arcSize=10;whiteSpace=wrap;html=1;align=center;" vertex="1" parent="1">
          <mxGeometry x="530" y="200" width="100" height="40" as="geometry" />
        </mxCell>
        <mxCell id="_MdnP5pKjzL89MY6UDUo-15" style="edgeStyle=orthogonalEdgeStyle;rounded=0;orthogonalLoop=1;jettySize=auto;html=1;exitX=1;exitY=0.5;exitDx=0;exitDy=0;entryX=0.017;entryY=0.5;entryDx=0;entryDy=0;entryPerimeter=0;strokeWidth=2;" edge="1" parent="1" source="_MdnP5pKjzL89MY6UDUo-13" target="_MdnP5pKjzL89MY6UDUo-11">
          <mxGeometry relative="1" as="geometry" />
        </mxCell>
        <mxCell id="_MdnP5pKjzL89MY6UDUo-20" value="Notify&lt;div&gt;User&lt;/div&gt;" style="edgeLabel;html=1;align=center;verticalAlign=middle;resizable=0;points=[];" vertex="1" connectable="0" parent="_MdnP5pKjzL89MY6UDUo-15">
          <mxGeometry x="-0.0112" y="3" relative="1" as="geometry">
            <mxPoint as="offset" />
          </mxGeometry>
        </mxCell>
        <mxCell id="_MdnP5pKjzL89MY6UDUo-18" style="edgeStyle=orthogonalEdgeStyle;rounded=0;orthogonalLoop=1;jettySize=auto;html=1;exitX=0.5;exitY=0;exitDx=0;exitDy=0;entryX=0;entryY=0.5;entryDx=0;entryDy=0;entryPerimeter=0;startArrow=classic;startFill=1;strokeWidth=2;" edge="1" parent="1" source="_MdnP5pKjzL89MY6UDUo-13" target="_MdnP5pKjzL89MY6UDUo-12">
          <mxGeometry relative="1" as="geometry" />
        </mxCell>
        <mxCell id="_MdnP5pKjzL89MY6UDUo-19" value="Get subscriptions&lt;div&gt;per watcher (user)&lt;/div&gt;" style="edgeLabel;html=1;align=center;verticalAlign=middle;resizable=0;points=[];" vertex="1" connectable="0" parent="_MdnP5pKjzL89MY6UDUo-18">
          <mxGeometry x="0.25" y="-3" relative="1" as="geometry">
            <mxPoint x="-3" y="65" as="offset" />
          </mxGeometry>
        </mxCell>
      </root>
    </mxGraphModel>
  </diagram>
</mxfile>
